<?xml version="1.0" encoding="UTF-8"?>
<svg version="1.1" xmlns="http://www.w3.org/2000/svg" viewBox="0 0 512 512" 
     fill="currentColor" 
     stroke="currentColor" 
     stroke-width="2" 
     stroke-linejoin="round" 
     stroke-linecap="round" 
     paint-order="fill stroke">
<path d="M0 0 C1.41065301 -0.00418446 2.82130264 -0.00966802 4.23194617 -0.01631981 C8.06690167 -0.03064757 11.90163996 -0.02656988 15.73660672 -0.019153 C19.88875547 -0.01439186 24.0408592 -0.02695707 28.19299316 -0.03717041 C36.31153642 -0.05430675 44.43000211 -0.05520914 52.54855875 -0.04995751 C59.15230119 -0.0459047 65.75602083 -0.04737251 72.35976219 -0.05270576 C73.77331479 -0.0538284 73.77331479 -0.0538284 75.215424 -0.05497371 C77.13027909 -0.0565053 79.04513419 -0.05804365 80.95998927 -0.05958868 C98.88985053 -0.07329519 116.81966807 -0.06788919 134.74952831 -0.05640347 C151.12337519 -0.04647437 167.49710901 -0.05940947 183.87093846 -0.08333766 C200.71657036 -0.10776829 217.56214969 -0.11732672 234.40779895 -0.11068493 C243.85212822 -0.10720134 253.29637061 -0.10936768 262.74068642 -0.12693596 C270.78081431 -0.14170767 278.82079413 -0.14222885 286.86091927 -0.12486505 C290.9562792 -0.11639314 295.0513752 -0.11411121 299.14672089 -0.1295166 C330.75394501 -0.24001304 330.75394501 -0.24001304 344.44718933 4.38768005 C345.29931912 4.67319009 346.15144892 4.95870012 347.02940083 5.25286198 C372.52377836 14.68398648 392.79316525 33.72149387 404.29386902 58.16795349 C405.84274832 61.54534759 407.27388769 64.86356877 408.44718933 68.38768005 C408.78280632 69.38294708 409.11842331 70.37821411 409.46421051 71.40364075 C413.609256 86.01352904 413.01918132 100.97670614 412.97008801 116.0252943 C412.96095275 120.17535142 412.97504878 124.32534378 412.98600769 128.47538757 C413.00370799 136.58351953 412.99999104 144.69150261 412.98835713 152.79964018 C412.97928944 159.394734 412.97811316 165.98978637 412.98245239 172.58488464 C412.98306532 173.52684657 412.98367826 174.4688085 412.98430976 175.43931472 C412.98558878 177.35344522 412.98688564 179.26757571 412.98820013 181.18170619 C412.99958106 199.09156816 412.98653138 217.00134798 412.96499866 234.91119647 C412.94712995 250.24779982 412.95023476 265.58428202 412.96867371 280.92088318 C412.99012449 298.77070926 412.99848265 316.6204635 412.98622465 334.47030067 C412.98495058 336.37702559 412.98369309 338.28375052 412.98245239 340.19047546 C412.98183529 341.12839428 412.98121819 342.06631309 412.98058239 343.03265369 C412.97714209 349.61274445 412.98292921 356.19278928 412.99237061 362.77287292 C413.00363888 370.80195645 413.00044976 378.83088375 412.97924763 386.85994959 C412.96880173 390.9492492 412.96450364 395.03828921 412.97784424 399.12758636 C413.07233146 430.68691586 413.07233146 430.68691586 408.44718933 444.38768005 C408.16169975 445.23987122 407.87621017 446.09206238 407.5820694 446.97007751 C398.13472343 472.50418514 378.88904292 492.80835952 354.44718933 504.38768005 C340.68305396 510.30137946 326.89715704 512.8459318 311.93234253 512.77536011 C310.52581431 512.77954462 309.11928947 512.78502821 307.71277076 512.79167992 C303.88921662 512.80600699 300.06588036 512.80193021 296.24231493 512.79451311 C292.10243617 512.7897518 287.96260257 512.80231733 283.82273865 512.81253052 C275.72825879 512.82966652 267.63385674 512.83056932 259.53936347 512.82531761 C252.95516715 512.82126474 246.37099371 512.8227327 239.78679848 512.82806587 C238.37740893 512.82918851 238.37740893 512.82918851 236.93954686 512.83033382 C235.03032876 512.83186541 233.12111067 512.83340376 231.21189258 512.83494879 C213.33496641 512.84865517 195.45808407 512.84324938 177.58115891 512.83176357 C161.25581085 512.8218345 144.93057619 512.83476957 128.60524561 512.85869776 C111.80933422 512.88312866 95.01347555 512.89268676 78.21754676 512.88604504 C68.80116307 512.8825615 59.38486651 512.88472741 49.96849632 512.90229607 C41.95215685 512.91706811 33.93596589 512.91758853 25.91962918 512.90022516 C21.83642057 512.89175351 17.75347668 512.88947065 13.67028236 512.90487671 C-17.84490778 513.01538371 -17.84490778 513.01538371 -31.55281067 508.38768005 C-32.40505879 508.10217002 -33.25730692 507.81665998 -34.13538074 507.52249813 C-59.51180917 498.13347003 -79.99154128 478.90819939 -91.47200012 454.53489685 C-93.00041603 451.18190572 -94.40257613 447.88678543 -95.55281067 444.38768005 C-96.05453671 442.89647896 -96.05453671 442.89647896 -96.56639862 441.37515259 C-100.71520708 426.76427898 -100.12480821 411.800358 -100.07570934 396.7500658 C-100.06657409 392.60000869 -100.08067012 388.45001632 -100.09162903 384.29997253 C-100.10932933 376.19184057 -100.10561238 368.0838575 -100.09397846 359.97571993 C-100.08491077 353.38062611 -100.0837345 346.78557374 -100.08807373 340.19047546 C-100.08868666 339.24851354 -100.08929959 338.30655161 -100.0899311 337.33604538 C-100.09121012 335.42191488 -100.09250698 333.50778439 -100.09382147 331.59365392 C-100.10520239 313.68379194 -100.09215272 295.77401213 -100.07062 277.86416364 C-100.05275129 262.52756029 -100.0558561 247.19107809 -100.07429504 231.85447693 C-100.09574583 214.00465085 -100.10410399 196.15489661 -100.09184599 178.30505943 C-100.09057192 176.39833451 -100.08931443 174.49160958 -100.08807373 172.58488464 C-100.08714808 171.17800642 -100.08714808 171.17800642 -100.08620372 169.74270642 C-100.08276343 163.16261566 -100.08855055 156.58257083 -100.09799194 150.00248718 C-100.10926021 141.97340365 -100.1060711 133.94447636 -100.08486897 125.91541052 C-100.07442307 121.8261109 -100.07012498 117.73707089 -100.08346558 113.64777374 C-100.17783125 82.13389862 -100.17783125 82.13389862 -95.55281067 68.38768005 C-95.27788536 67.5513353 -95.00296005 66.71499054 -94.71970367 65.853302 C-85.47168261 40.30634608 -66.1139651 20.05273784 -41.69148254 8.50779724 C-28.15642584 2.38949997 -14.85233716 -0.06982808 0 0 Z M-52.30281067 57.57518005 C-63.11855847 71.45345143 -67.02661827 85.99630956 -66.9337616 103.42991638 C-66.93722608 104.8094078 -66.94199591 106.18889645 -66.94794333 107.5683794 C-66.96037458 111.32630226 -66.95431925 115.08399423 -66.94498467 118.84191751 C-66.93816194 122.90742907 -66.94869131 126.97290253 -66.95692444 131.03840637 C-66.97022973 138.98978127 -66.96739836 146.94107097 -66.95868652 154.89244914 C-66.95189773 161.3575515 -66.95099841 167.82263008 -66.95425797 174.28773499 C-66.95471766 175.20961509 -66.95517736 176.13149519 -66.95565099 177.08131105 C-66.95661022 178.95438187 -66.95758286 180.82745269 -66.95856877 182.7005235 C-66.96711328 200.24394445 -66.95730328 217.78731829 -66.94116767 235.33073151 C-66.92776534 250.36764159 -66.9300937 265.40448217 -66.94392395 280.44139099 C-66.95999637 297.92415733 -66.96628939 315.40688242 -66.95708716 332.88965511 C-66.95613156 334.75564511 -66.95518845 336.62163511 -66.95425797 338.48762512 C-66.95379514 339.40560955 -66.95333231 340.32359398 -66.95285546 341.26939613 C-66.95027056 347.72302896 -66.95462577 354.17663552 -66.96169662 360.63026428 C-66.97013031 368.50038688 -66.96779231 376.37041977 -66.95185439 384.24053216 C-66.94399676 388.25218022 -66.94083703 392.26367898 -66.95080185 396.27532578 C-66.95980158 399.95421969 -66.95473004 403.63282719 -66.93886919 407.31169546 C-66.93397935 409.25874046 -66.94367045 411.20580565 -66.95404088 413.15282917 C-66.82985274 431.88359892 -59.9015142 447.576028 -46.98786926 460.98484802 C-32.95383796 474.70372245 -15.6974224 479.86717385 3.47596741 479.77536011 C4.85403409 479.77954237 6.23209732 479.78502474 7.61015427 479.79167992 C11.364209 479.80603639 15.11804236 479.80192081 18.8721087 479.79451311 C22.93357373 479.78975926 26.99499238 479.80231078 31.05644226 479.81253052 C39.00046168 479.82968062 46.94440187 479.83056642 54.88843499 479.82531761 C61.34875388 479.8212676 67.80904944 479.82272932 74.26936722 479.82806587 C75.19066987 479.82881429 76.11197253 479.82956272 77.06119344 479.83033382 C78.9331328 479.83186538 80.80507216 479.83340373 82.6770115 479.83494879 C100.21095216 479.84866012 117.74484813 479.84324575 135.27878775 479.83176357 C151.29913046 479.82183266 167.31935766 479.83477185 183.33968256 479.85869776 C199.81346285 479.8831144 216.28718939 479.89269033 232.7609874 479.88604504 C242.00013026 479.88255851 251.23918432 479.88474739 260.47831345 479.90229607 C268.34327326 479.91705015 276.20808173 479.91761171 284.07303868 479.90022516 C288.08092862 479.89173909 292.08854856 479.88950653 296.0964241 479.90487671 C299.77426088 479.91880588 303.45159844 479.91385658 307.12940694 479.89463747 C309.07100442 479.8891496 311.01262786 479.90308001 312.95417583 479.91799158 C331.56968342 479.76367651 348.15253327 472.35856976 361.44718933 459.38768005 C374.33105849 444.8755178 379.92996672 428.62768173 379.82814026 409.46569824 C379.83160367 408.08706987 379.8363728 406.70844427 379.84232199 405.32982439 C379.85476806 401.56964236 379.84869102 397.80969073 379.83936334 394.04950821 C379.83254671 389.98329735 379.84306702 385.91712477 379.8513031 381.85092163 C379.86461521 373.89606754 379.86177386 365.94129857 379.85306518 357.9864412 C379.84627861 351.51845451 379.84537612 345.0504916 379.84863663 338.58250237 C379.84909633 337.66048677 379.84955603 336.73847118 379.85002965 335.78851573 C379.85098887 333.91520337 379.85196151 332.04189102 379.85294743 330.16857868 C379.86149406 312.61848566 379.85167886 295.06843971 379.83554633 277.51835441 C379.82214604 262.47517962 379.82447027 247.43207429 379.83830261 232.38890076 C379.85437513 214.90138066 379.86066781 197.41390179 379.85146582 179.92637533 C379.85051022 178.05980806 379.84956711 176.19324079 379.84863663 174.32667351 C379.84794239 172.94925438 379.84794239 172.94925438 379.84723412 171.5440086 C379.84464908 165.08788266 379.84900478 158.63178297 379.85607529 152.17566109 C379.86450917 144.30185448 379.86217065 136.42813754 379.84623305 128.55434114 C379.83837534 124.54067479 379.83521578 120.52715767 379.84518051 116.51349258 C379.85418023 112.8327084 379.84910871 109.15221048 379.83324786 105.47145193 C379.82835794 103.5233652 379.83804919 101.57525829 379.84841955 99.62719303 C379.72428175 80.89423109 372.79760983 65.20111491 359.88224792 51.79051208 C345.8434078 38.06693683 328.58479533 32.90457148 309.404953 33.00672913 C308.02546158 33.00326464 306.64597294 32.99849481 305.26648998 32.99254739 C301.50856712 32.98011614 297.75087516 32.98617147 293.99295187 32.99550605 C289.92744031 33.00232879 285.86196686 32.99179942 281.79646301 32.98356628 C273.84508812 32.97026099 265.89379841 32.97309236 257.94242024 32.98180421 C251.47731788 32.98859299 245.01223931 32.98949231 238.5471344 32.98623276 C237.6252543 32.98577306 236.7033742 32.98531336 235.75355834 32.98483973 C233.88048751 32.98388051 232.0074167 32.98290787 230.13434589 32.98192196 C212.59092494 32.97337745 195.0475511 32.98318744 177.50413787 32.99932306 C162.4672278 33.01272538 147.43038722 33.01039702 132.39347839 32.99656677 C114.91071206 32.98049435 97.42798696 32.97420133 79.94521427 32.98340356 C78.07922427 32.98435916 76.21323427 32.98530227 74.34724426 32.98623276 C73.42925983 32.98669558 72.5112754 32.98715841 71.56547326 32.98763526 C65.11184043 32.99022016 58.65823386 32.98586495 52.2046051 32.9787941 C44.3344825 32.97036042 36.46444961 32.97269841 28.59433722 32.98863633 C24.58268916 32.99649397 20.5711904 32.9996537 16.55954361 32.98968887 C12.88064969 32.98068914 9.2020422 32.98576069 5.52317393 33.00162153 C3.57612893 33.00651138 1.62906374 32.99682027 -0.31795979 32.98644984 C-21.22994687 33.12509982 -38.58957171 41.82692419 -52.30281067 57.57518005 Z " transform="translate(99.55281066894531,-0.3876800537109375)"/>
<path d="M0 0 C1.78901985 -0.00810448 1.78901985 -0.00810448 3.61418152 -0.01637268 C6.86836789 -0.02670223 10.12188792 -0.01919946 13.37603045 -0.00266147 C16.78896987 0.01124221 20.20188008 0.00472317 23.61483765 0.00120544 C29.34275843 -0.00149177 35.07046907 0.01193909 40.79833984 0.03515625 C47.41442118 0.0617885 54.03015187 0.0635033 60.64626849 0.05176789 C67.02204081 0.04098004 73.39768666 0.04718338 79.77344894 0.06132317 C82.48228328 0.06707173 85.19102472 0.0670093 87.89986038 0.06225777 C91.68215412 0.05935099 95.46387265 0.0758274 99.24609375 0.09765625 C100.36726089 0.0931546 101.48842804 0.08865295 102.64356995 0.08401489 C103.6752681 0.09391953 104.70696625 0.10382416 105.76992798 0.11402893 C106.66327158 0.11645883 107.55661518 0.11888872 108.4770298 0.12139225 C112.82111747 0.77787895 115.39371852 2.81845102 118.24365234 6.06420898 C121.94106199 11.21417241 121.56878348 16.31297389 120.99365234 22.50170898 C118.68876441 27.46608299 115.77378286 29.92541169 110.99365234 32.50170898 C107.66960552 33.0550635 104.40406383 33.00821797 101.04101562 32.95581055 C100.05502884 32.95639465 99.06904205 32.95697876 98.05317688 32.95758057 C94.80641006 32.95480225 91.56057055 32.92372128 88.31396484 32.89233398 C86.0581004 32.88487072 83.80222946 32.87917819 81.5463562 32.87518311 C75.61802167 32.85993363 69.69008108 32.82065721 63.76190186 32.77636719 C57.70899789 32.73539999 51.65603008 32.71716896 45.60302734 32.69702148 C33.73303502 32.65416262 21.86343812 32.58381786 9.99365234 32.50170898 C9.99365234 45.37170898 9.99365234 58.24170898 9.99365234 71.50170898 C14.94365234 70.51170898 19.89365234 69.52170898 24.99365234 68.50170898 C48.09502721 66.52491348 70.90810265 73.62324407 88.71630859 88.50561523 C105.42849147 103.15385786 114.63561406 122.40158228 116.86865234 144.37670898 C117.95514629 168.25241354 110.61057411 189.50397612 94.48974609 207.25952148 C88.53819802 213.47351336 82.50793321 218.32223306 74.99365234 222.50170898 C74.18283203 222.9619043 73.37201172 223.42209961 72.53662109 223.89624023 C53.83443433 233.89692492 30.04652617 235.9075348 9.72412109 229.88452148 C-10.12724267 222.52600549 -27.32316892 210.32528587 -37.74853516 191.46264648 C-39.64203749 187.00527143 -40.07004046 183.22923256 -39.00634766 178.50170898 C-36.34852187 173.18605741 -32.69926741 169.3993489 -27.00634766 167.50170898 C-22.52625675 167.10685352 -18.40348752 166.94285304 -14.19384766 168.62670898 C-10.74544008 171.5824869 -8.10287453 174.98916313 -5.45166016 178.64624023 C2.29707823 189.12667671 12.08820952 196.06924688 24.99365234 198.50170898 C40.12507987 200.07858301 52.340535 197.03084734 64.99365234 188.50170898 C65.88052734 187.92420898 66.76740234 187.34670898 67.68115234 186.75170898 C76.66424226 178.01140528 81.99992994 166.4891554 82.28637695 154.00366211 C82.40224896 139.34370711 79.09382331 127.80325362 69.25537109 116.50561523 C59.84213143 107.45519851 46.98695161 102.61815229 34.11865234 102.18920898 C22.60157428 102.42305829 12.3651263 106.58430114 3.11865234 113.31420898 C-1.90726455 116.54223691 -7.24110897 116.37055481 -13.00634766 115.50170898 C-17.97350851 113.19552716 -20.39882747 110.26407255 -23.00634766 105.50170898 C-23.56842596 102.42922232 -23.55374401 99.41974038 -23.52392578 96.30273438 C-23.53093506 95.39626663 -23.53794434 94.48979889 -23.54516602 93.55586243 C-23.5627196 90.57004842 -23.5511315 87.58518829 -23.53759766 84.59936523 C-23.54029356 82.51720498 -23.5441768 80.43504596 -23.54919434 78.35289001 C-23.55508602 73.99262486 -23.54653773 69.63268789 -23.52783203 65.27246094 C-23.5050571 59.6927044 -23.51815873 54.11371812 -23.54212189 48.53398991 C-23.55660074 44.23504369 -23.55196401 39.93627898 -23.54161072 35.63732719 C-23.53894848 33.58049871 -23.54219545 31.52365358 -23.55152893 29.46684456 C-23.56172715 26.58748082 -23.54614685 23.70935039 -23.52392578 20.83007812 C-23.53202271 19.9857019 -23.54011963 19.14132568 -23.54846191 18.2713623 C-23.46679943 12.53810932 -22.50797362 9.11246604 -19.00634766 4.50170898 C-13.04743906 -0.27825224 -7.42862044 -0.0642901 0 0 Z " transform="translate(291.00634765625,139.498291015625)"/>
<path d="M0 0 C4.10086163 3.99834009 6.26291453 7.60831601 6.99219131 13.23490047 C7.00878818 14.62866936 7.00385324 16.02280801 6.98101807 17.41648865 C6.98443577 18.19017747 6.98785347 18.96386628 6.99137473 19.76100022 C6.99793143 22.33771452 6.97601516 24.9133729 6.95410156 27.48999023 C6.9529726 29.34321569 6.95360789 31.19644294 6.95587158 33.04966736 C6.95701776 38.06991135 6.93352389 43.08977193 6.90557575 48.10992694 C6.88054615 53.36029786 6.87821886 58.61067787 6.87347412 63.86109924 C6.86104895 73.79867118 6.82823345 83.7360668 6.78807616 93.67356116 C6.74334426 104.98908184 6.72136783 116.30461102 6.70129442 127.62019813 C6.6595005 150.89272978 6.58915725 174.16510501 6.5 197.4375 C7.49012085 197.41393433 7.49012085 197.41393433 8.50024414 197.38989258 C11.52090727 197.32713312 14.5414327 197.28838017 17.5625 197.25 C18.60083984 197.22486328 19.63917969 197.19972656 20.70898438 197.17382812 C27.44717946 197.10965484 32.92155852 197.35651003 38.2421875 201.9375 C42.62544205 207.74153362 43.10861268 212.34439583 42.5 219.4375 C40.61130184 224.80537898 37.58016831 227.89741584 32.5 230.4375 C29.84689158 230.55143449 27.21942441 230.60533159 24.56542969 230.61450195 C23.74572189 230.62107315 22.9260141 230.62764435 22.08146667 230.63441467 C19.3616019 230.65416722 16.64179242 230.66581532 13.921875 230.67578125 C12.52920788 230.68189454 12.52920788 230.68189454 11.10840607 230.68813133 C6.19320395 230.70900158 1.27802983 230.7232985 -3.63720703 230.73266602 C-8.71265761 230.74372541 -13.78766916 230.77811714 -18.86296463 230.81783772 C-22.76636567 230.84399459 -26.66966203 230.85235708 -30.57314301 230.85594749 C-32.44382437 230.86081678 -34.31450096 230.87244051 -36.18509674 230.89098549 C-38.80636759 230.91535471 -41.42650192 230.91441601 -44.04785156 230.9074707 C-45.20300011 230.92668579 -45.20300011 230.92668579 -46.38148499 230.94628906 C-51.5757971 230.89623311 -54.48789254 229.6960999 -58.5 226.4375 C-62.48209476 221.90615079 -62.7957077 217.7696899 -62.7109375 211.9375 C-62.29072159 206.95716327 -60.19352156 203.8607458 -56.5625 200.625 C-47.62828542 194.24341815 -38.00110055 197.4375 -26.5 197.4375 C-26.83 149.5875 -27.16 101.7375 -27.5 52.4375 C-29.81 54.7475 -32.12 57.0575 -34.5 59.4375 C-51.08818142 74.86267239 -51.08818142 74.86267239 -61.22265625 74.71484375 C-66.14734222 74.1150964 -69.18815926 70.94440352 -72.3125 67.375 C-75.57634885 62.99211726 -75.94154874 59.82439461 -75.5 54.4375 C-73.32880928 46.38739286 -66.59895651 41.6126314 -60.5 36.4375 C-59.22777539 35.31407359 -57.9567931 34.1892375 -56.6875 33.0625 C-54.24429792 30.93406629 -51.78429478 28.82624927 -49.31640625 26.7265625 C-43.50484778 21.77723386 -37.73556843 16.80218423 -32.125 11.625 C-24.99012931 5.04262931 -24.99012931 5.04262931 -21.9375 2.3125 C-21.33808594 1.77367187 -20.73867187 1.23484375 -20.12109375 0.6796875 C-14.79013155 -3.40524257 -5.76867143 -2.57529975 0 0 Z " transform="translate(174.5,141.5625)"/>
<path d="M0 0 C3.95514912 3.48429803 5.46025019 6.71394045 6.00138092 11.96450615 C6.01728821 13.34871326 6.01700785 14.73316813 6.00354004 16.11740112 C6.00807017 16.88459099 6.0126003 17.65178086 6.0172677 18.4422189 C6.02885956 21.00315769 6.01925782 23.56357093 6.00976562 26.12451172 C6.01387225 27.9646132 6.01933367 29.80471209 6.02604675 31.64480591 C6.03776333 35.6029762 6.04025906 39.56100709 6.03569031 43.51919174 C6.02887694 49.78086197 6.04475534 56.04234902 6.06408691 62.3039856 C6.10193832 75.59848053 6.11473988 88.89295945 6.125 102.1875 C6.13607584 116.53358695 6.15144858 130.87958948 6.19571257 145.22561848 C6.21405218 151.44712264 6.217967 157.66841721 6.21077728 163.88994193 C6.20925324 167.76464805 6.22005325 171.63924973 6.23415565 175.51392746 C6.23815134 177.30695705 6.23704519 179.1000066 6.23038292 180.89302826 C6.22196776 183.34681677 6.23202968 185.79988602 6.24645996 188.25363159 C6.23956603 188.95773442 6.23267209 189.66183725 6.22556925 190.38727653 C6.28827826 195.88703287 7.25083015 201.68130402 11.04149008 205.8823384 C15.76050957 209.95810808 19.29749006 210.43823203 25.35620117 210.47021484 C26.03629242 210.47529556 26.71638367 210.48037628 27.41708374 210.48561096 C28.89356896 210.49630569 30.37007031 210.50492939 31.8465786 210.51173019 C34.18884537 210.52354279 36.5309297 210.54300376 38.87312317 210.56484985 C45.53262189 210.62637097 52.19210318 210.68040053 58.85180664 210.71386719 C62.92733652 210.73489739 67.00253533 210.7702707 71.07787514 210.81462479 C72.62585852 210.82872325 74.1739005 210.83749324 75.72194481 210.84067917 C94.00420335 210.88227159 94.00420335 210.88227159 100 216.5625 C103.61234475 222.67569881 104.0448941 227.54069739 102.625 234.3125 C100.8782951 237.97226265 98.67416545 240.64448023 95.625 243.3125 C92.09618207 244.48877264 88.89566454 244.47557426 85.22290039 244.48950195 C84.09535843 244.49935875 84.09535843 244.49935875 82.94503784 244.50941467 C80.45424289 244.52913997 77.96350847 244.54081367 75.47265625 244.55078125 C74.19189115 244.55689454 74.19189115 244.55689454 72.885252 244.56313133 C68.35864378 244.58399706 63.83206584 244.59829193 59.30541992 244.60766602 C54.65542913 244.6186816 50.00592334 244.65302328 45.35610294 244.69283772 C41.76042365 244.71914464 38.16485693 244.72737065 34.56908989 244.73094749 C32.85687452 244.73578373 31.14466317 244.74731192 29.4325428 244.76598549 C12.87430688 244.93523464 -0.51715266 241.63773365 -13.125 230.125 C-25.54153142 216.81304564 -26.82494914 202.37480881 -26.77905273 185.18847656 C-26.78476178 183.25587063 -26.7917281 181.32326807 -26.79985046 179.39067078 C-26.81773136 174.16577111 -26.81662383 168.94103984 -26.81090808 163.71611881 C-26.80781095 159.34944861 -26.81391404 154.98281052 -26.81994683 150.6161449 C-26.83397183 140.31747419 -26.83244572 130.01888649 -26.82104492 119.72021484 C-26.80954675 109.09887035 -26.82367256 98.47777785 -26.8504414 87.85646653 C-26.87258659 78.72756621 -26.87923899 69.59874507 -26.87336498 60.46981978 C-26.86999369 55.02142655 -26.87242296 49.57319513 -26.88961601 44.12482452 C-26.90506573 39.0061854 -26.90115148 33.88792087 -26.88231087 28.76929665 C-26.87862051 26.89156733 -26.88174644 25.01381035 -26.89219666 23.13610649 C-26.90537684 20.57217705 -26.8938864 18.00949347 -26.87620544 15.44561768 C-26.88581045 14.70339911 -26.89541546 13.96118054 -26.90531152 13.1964705 C-26.83318381 8.11072644 -25.5678874 5.23389379 -22.375 1.3125 C-15.53490144 -3.77372713 -7.48268285 -3.74134142 0 0 Z " transform="translate(76.375,217.6875)"/>
<path d="M0 0 C3.46236126 2.39067801 5.74528805 5.0530761 7.625 8.8125 C7.73905899 11.52548387 7.79284392 14.21338162 7.80200195 16.92724609 C7.80857315 17.76657684 7.81514435 18.60590759 7.82191467 19.47067261 C7.84168215 22.25909513 7.85332338 25.04746348 7.86328125 27.8359375 C7.86735678 28.78999104 7.8714323 29.74404457 7.87563133 30.72700882 C7.89651554 35.78528884 7.91080208 40.84354162 7.92016602 45.90185547 C7.93118216 51.10450624 7.96551944 56.30672358 8.00533772 61.50922203 C8.03161836 65.52610005 8.0398684 69.54287712 8.04344749 73.55983353 C8.04829089 75.4757947 8.05984002 77.39175206 8.07848549 79.30762863 C8.23590848 96.56863173 5.49817555 110.35458946 -6.5625 123.5625 C-19.30399798 135.44694654 -33.36158231 137.26512059 -49.93847656 137.21655273 C-51.70359731 137.22226301 -53.46871438 137.2292298 -55.23382568 137.23735046 C-60.00213309 137.25521729 -64.77025585 137.2541266 -69.53858662 137.24840808 C-73.52500274 137.24530907 -77.51138375 137.25141608 -81.49779487 137.25744683 C-90.89992707 137.27146703 -100.30196834 137.26994959 -109.70410156 137.25854492 C-119.39841837 137.24704564 -129.09245912 137.26117543 -138.78673959 137.2879414 C-147.121593 137.31009081 -155.4563597 137.31673809 -163.79124045 137.31086498 C-168.76456305 137.30749488 -173.73770838 137.30991506 -178.71100616 137.32711601 C-183.38315559 137.34257265 -188.05489475 137.33864393 -192.72702789 137.31981087 C-194.4402763 137.31612249 -196.15355504 137.3192407 -197.86677551 137.32969666 C-200.20741307 137.34289078 -202.54668891 137.33137495 -204.88726807 137.31370544 C-206.19613102 137.31349616 -207.50499397 137.31328688 -208.85351944 137.31307125 C-214.41072775 136.52312547 -217.40812898 134.08469871 -220.75 129.6875 C-223.05367139 125.20546153 -223.03445889 120.72994651 -222.375 115.8125 C-220.58332407 110.53700977 -217.83319126 107.93323388 -213.375 104.8125 C-209.36115351 103.69319231 -205.48619948 103.68778887 -201.33573914 103.68792725 C-200.29036656 103.68581202 -200.29036656 103.68581202 -199.22387534 103.68365407 C-196.8949166 103.68001201 -194.56601917 103.68333288 -192.23706055 103.68652344 C-190.56459506 103.68512809 -188.89212992 103.68322839 -187.21966553 103.68086243 C-183.6205638 103.67637024 -180.02147346 103.67450945 -176.422369 103.67440033 C-170.72790521 103.67325866 -165.03350604 103.6604107 -159.33906555 103.64483643 C-158.37738879 103.64226357 -157.41571204 103.63969072 -156.42489356 103.6370399 C-154.4585717 103.6317735 -152.4922499 103.62648801 -150.52592814 103.62118387 C-137.27158844 103.58609271 -124.0173295 103.55952255 -110.76293945 103.56201172 C-101.81819295 103.56360122 -92.87366732 103.54754464 -83.92899162 103.51130509 C-79.1980532 103.49286124 -74.46748352 103.48348864 -69.73651695 103.49578094 C-65.28510925 103.50723521 -60.83436144 103.49547315 -56.38304138 103.46614647 C-54.75288904 103.45951807 -53.12267606 103.46135186 -51.49254799 103.47244453 C-40.49011662 103.779989 -40.49011662 103.779989 -30.77296925 99.27068043 C-26.38368568 94.69234839 -25.93800701 89.97656095 -25.99023438 83.89868164 C-25.9848616 83.12876389 -25.97948883 82.35884613 -25.97395325 81.56559753 C-25.96420916 79.90255802 -25.96122087 78.23946786 -25.96430969 76.57640266 C-25.96880575 73.93996739 -25.9547373 71.30419698 -25.93591309 68.66783142 C-25.89920933 63.07023161 -25.88543475 57.4727024 -25.875 51.875 C-25.86290113 45.38903284 -25.84127549 38.90339125 -25.79499817 32.41757011 C-25.78147321 29.82789535 -25.78559038 27.23863699 -25.79040527 24.64894104 C-25.78105992 23.05119301 -25.77088991 21.45344952 -25.75976562 19.85571289 C-25.76898796 18.78551407 -25.76898796 18.78551407 -25.77839661 17.69369507 C-25.71090098 12.14699639 -24.56308968 7.35387499 -20.875 3.0703125 C-14.40686854 -1.81447428 -7.68572839 -2.70423777 0 0 Z " transform="translate(454.375,325.1875)"/>
<path d="M0 0 C0.92769699 -0.00700928 1.85539398 -0.01401855 2.811203 -0.02124023 C5.87037334 -0.03880651 8.92861359 -0.02719629 11.98779297 -0.01367188 C14.12523576 -0.01636855 16.26267736 -0.02025243 18.40011597 -0.02526855 C22.88063228 -0.03116293 27.36082943 -0.02260746 31.84130859 -0.00390625 C37.55732948 0.01880011 43.27259558 0.00581236 48.98858833 -0.01819611 C53.40525888 -0.03272648 57.82175387 -0.02801361 62.23843002 -0.01768494 C64.34415656 -0.0150333 66.44989949 -0.01823182 68.55560684 -0.02760315 C86.52306191 -0.08998337 100.51321276 2.06560204 114.35498047 14.70507812 C126.04481053 27.23792478 128.0588721 41.10796053 128.0090332 57.43847656 C128.01474405 59.13463285 128.02171107 60.8307853 128.02983093 62.52693176 C128.04769116 67.10723088 128.04660837 71.68733769 128.04088855 76.26766109 C128.03778865 80.09750207 128.04389751 83.92730654 128.04992729 87.75714231 C128.06394525 96.79011175 128.06243187 105.82298654 128.05102539 114.85595703 C128.0395256 124.16855708 128.05365725 133.48086977 128.08042186 142.793432 C128.10257326 150.80132502 128.10921814 158.80912778 128.10334545 166.81704926 C128.09997591 171.59475489 128.10239181 176.37227597 128.11959648 181.14995575 C128.13505638 185.63825718 128.13112086 190.12613162 128.11229134 194.61441612 C128.1086039 196.25993709 128.11171848 197.90548966 128.12217712 199.55098152 C128.13537782 201.79967762 128.12385006 204.04695777 128.10618591 206.29559326 C128.10597663 207.55283581 128.10576735 208.81007835 128.10555172 210.10541916 C127.4213411 214.7693614 125.46412659 218.05682046 121.74560547 220.97851562 C115.40788605 224.04261964 110.80768713 224.49467507 103.91748047 222.39257812 C99.78519794 220.05355028 96.61942471 217.3968178 94.98037434 212.74479389 C94.47525412 209.74791035 94.47685302 206.85951074 94.47367859 203.81962585 C94.47050502 202.81122854 94.47050502 202.81122854 94.46726733 201.78245956 C94.46127841 199.53098202 94.4622667 197.27956071 94.46313477 195.02807617 C94.46010253 193.41324773 94.4565809 191.79842015 94.4526062 190.18359375 C94.44472173 186.70615735 94.43957398 183.2287312 94.43631554 179.75128746 C94.4304016 174.25040427 94.4138576 168.74958565 94.39497375 163.24873352 C94.38863649 161.36485962 94.38231087 159.48098568 94.37599659 157.5971117 C94.37283078 156.65370257 94.36966497 155.71029344 94.36640322 154.73829615 C94.32433895 141.93271992 94.29135038 129.12717394 94.27905273 116.3215332 C94.27067097 107.68226003 94.24817674 99.04314694 94.20969707 90.40395385 C94.18994182 85.83348953 94.1775301 81.26326449 94.18253136 76.69275475 C94.18717973 72.39245371 94.17336226 68.09260618 94.14551926 63.79239655 C94.1386109 62.21665498 94.13847712 60.64086649 94.14571953 59.06512642 C94.40379314 48.06573658 94.40379314 48.06573658 89.60498047 38.51757812 C83.48113377 33.66953283 78.66853942 33.37076684 71.07617188 33.37573242 C69.78765068 33.37052078 69.78765068 33.37052078 68.47309875 33.36520386 C66.60974396 33.35785902 64.74638048 33.35250687 62.88301468 33.34891319 C59.93214094 33.34173754 56.98143248 33.32606321 54.03060913 33.30757141 C45.64135992 33.25514957 37.25220252 33.20711801 28.86279297 33.19165039 C23.72923039 33.18156543 18.59608583 33.15223024 13.46268845 33.11033058 C11.50833676 33.09802564 9.55392604 33.0928984 7.5995369 33.09512901 C4.86343044 33.09748373 2.1285225 33.07530373 -0.60742188 33.04760742 C-1.81396172 33.05750954 -1.81396172 33.05750954 -3.0448761 33.06761169 C-8.27366311 32.9808443 -11.22197514 31.93713599 -15.39501953 28.51757812 C-18.61044708 24.42521579 -20.08402426 19.71805817 -19.77783203 14.53320312 C-18.81007435 9.43766269 -16.87949841 5.75292217 -12.89089966 2.43371582 C-8.38969454 -0.03345367 -5.04383842 -0.04712635 0 0 Z " transform="translate(334.39501953125,49.482421875)"/>
<path d="M0 0 C1.59955316 -0.00379135 3.19910301 -0.00929807 4.79864502 -0.01637268 C9.10612614 -0.03023045 13.41320355 -0.01922988 17.72066188 -0.00266147 C22.24131318 0.01126944 26.76194297 0.00472049 31.28260803 0.00120544 C38.86376398 -0.00148842 46.44476082 0.01191439 54.02587891 0.03515625 C62.78637932 0.06182808 71.54661503 0.06348874 80.3071422 0.05176789 C88.75191564 0.04098997 97.19659348 0.04717293 105.64135933 0.06132317 C109.22937853 0.06707609 112.81732761 0.06700592 116.40534782 0.06225777 C120.6252461 0.05748545 124.84485419 0.0676 129.06469727 0.08921242 C130.61226485 0.09477452 132.15986036 0.09525086 133.70742989 0.09025955 C135.82044722 0.08429899 137.93257935 0.09682469 140.04551697 0.11402893 C141.22734023 0.11645883 142.40916349 0.11888872 143.62679958 0.12139225 C148.38185387 0.6996538 150.88718804 2.5143352 154.00415039 6.06420898 C157.70156003 11.21417241 157.32928153 16.31297389 156.75415039 22.50170898 C154.44244601 27.48076457 151.4609184 29.79559109 146.75415039 32.50170898 C143.61751747 33.00113773 143.61751747 33.00113773 140.20205688 33.00050354 C138.9011763 33.01008087 137.60029572 33.0196582 136.25999451 33.02952576 C134.83047252 33.02002939 133.40095286 33.01017554 131.97143555 33 C130.45645108 33.00382564 128.94147024 33.00944677 127.42649841 33.01672363 C124.17053465 33.02865704 120.91489346 33.02819824 117.6589241 33.01812935 C112.5061716 33.00254143 107.35374902 33.01626585 102.20101929 33.03416443 C92.19015707 33.06496473 82.17939602 33.06648669 72.16849518 33.06451416 C59.43326645 33.06312083 46.69811582 33.0735261 33.96294439 33.11309189 C28.8453083 33.12799492 23.72796551 33.12777809 18.6103251 33.11561406 C15.42066534 33.11089013 12.23111692 33.11844306 9.0414753 33.12915802 C7.5677272 33.13155616 6.09396017 33.12885721 4.62023354 33.12055016 C-7.31764706 32.73859197 -7.31764706 32.73859197 -17.7530117 37.81203556 C-23.76289461 44.41214975 -23.52714627 51.63174912 -23.51928711 60.03295898 C-23.53956963 62.31030771 -23.56042029 64.58765143 -23.58178711 66.86499023 C-23.604409 70.43974041 -23.62087016 74.01429278 -23.62670898 77.58911133 C-23.63623109 81.04991993 -23.66999683 84.50984783 -23.70678711 87.97045898 C-23.70174164 89.03623169 -23.69669617 90.10200439 -23.6914978 91.20007324 C-23.7719837 97.27593355 -24.18259625 100.87636431 -28.24584961 105.50170898 C-32.33821195 108.71713654 -37.04536956 110.19071371 -42.23022461 109.88452148 C-47.23764308 108.93350015 -50.89457597 106.97715029 -54.32885742 103.22729492 C-57.56311979 98.21892556 -56.81515651 92.17472254 -56.77709961 86.43139648 C-56.78092651 85.1587796 -56.78475342 83.88616272 -56.78869629 82.57498169 C-56.79141593 79.88300994 -56.78607906 77.19249536 -56.76733398 74.50073242 C-56.74468199 71.08483233 -56.75758519 67.67019925 -56.78162384 64.25434685 C-56.79974792 60.95915479 -56.78696418 57.66410529 -56.77709961 54.36889648 C-56.78519653 53.15910126 -56.79329346 51.94930603 -56.80163574 50.70285034 C-56.65049687 36.78660562 -52.08654195 24.46115567 -42.49584961 14.25170898 C-30.24975483 2.74780176 -16.30686805 -0.11123422 0 0 Z " transform="translate(106.245849609375,49.498291015625)"/>
</svg>
