<?xml version="1.0" encoding="UTF-8"?>
<svg version="1.1" xmlns="http://www.w3.org/2000/svg" viewBox="0 0 512 512" 
     fill="currentColor" 
     stroke="currentColor" 
     stroke-width="10" 
     stroke-linejoin="round" 
     stroke-linecap="round" 
     paint-order="fill stroke">
<path d="M0 0 C1.92137819 -0.00604435 3.84275157 -0.01382399 5.76411647 -0.02318513 C11.03383158 -0.04374599 16.30327456 -0.0393814 21.57301199 -0.03082395 C27.26028288 -0.0258896 32.94748823 -0.04391761 38.63473511 -0.05889893 C49.77292218 -0.08439778 60.91101283 -0.08797969 72.04922418 -0.0832984 C81.10307533 -0.07973221 90.15689721 -0.08323099 99.21074486 -0.09174728 C101.14369624 -0.09353285 101.14369624 -0.09353285 103.11569714 -0.09535449 C105.73357657 -0.097778 108.35145598 -0.10020627 110.9693354 -0.10263924 C128.5466599 -0.11821347 146.12396882 -0.12605211 163.70129871 -0.11800575 C164.73197289 -0.11753662 164.73197289 -0.11753662 165.78346876 -0.11705802 C169.26588777 -0.1154465 172.74830673 -0.11375496 176.23072568 -0.11203142 C176.92232014 -0.11168924 177.6139146 -0.11134706 178.32646646 -0.11099452 C179.72503796 -0.11030121 181.12360946 -0.10960415 182.52218095 -0.10890335 C204.28142755 -0.09819019 226.04051203 -0.11404775 247.79972839 -0.15097046 C272.25814841 -0.19242498 296.71645112 -0.21379092 321.17491072 -0.20581949 C334.12077302 -0.2019945 347.06648764 -0.20697976 360.01232338 -0.23524857 C371.0336346 -0.25907146 382.05470722 -0.26189147 393.07602171 -0.23766823 C398.69784074 -0.22588716 404.31922332 -0.22370081 409.94101334 -0.24767303 C415.0912887 -0.26937917 420.24076292 -0.26319934 425.39100071 -0.23514967 C427.25028647 -0.22985243 429.1096349 -0.23459961 430.96885917 -0.25062139 C442.61914116 -0.34401834 452.38499039 0.30691748 461.52966529 8.51651609 C463.43012853 10.45947094 464.87051503 12.20533062 466.30729675 14.52139282 C466.63833763 15.03213858 466.9693785 15.54288433 467.31045091 16.06910723 C471.7346617 24.1610582 470.8684617 33.27149331 470.82868958 42.21409607 C470.83473393 44.13547426 470.84251356 46.05684764 470.85187471 47.97821254 C470.87243557 53.24792765 470.86807098 58.51737063 470.85951352 63.78710806 C470.85457918 69.47437895 470.87260719 75.1615843 470.8875885 80.84883118 C470.91308736 91.98701825 470.91666927 103.1251089 470.91198798 114.26332024 C470.90842178 123.3171714 470.91192057 132.37099328 470.92043686 141.42484093 C470.92162724 142.71347518 470.92281762 144.00210943 470.92404407 145.32979321 C470.92646757 147.94767263 470.92889584 150.56555205 470.93132882 153.18343147 C470.94690304 170.76075597 470.95474169 188.33806489 470.94669533 205.91539478 C470.94638258 206.6025109 470.94606982 207.28962701 470.94574759 207.99756483 C470.94413608 211.47998384 470.94244453 214.9624028 470.94072099 218.44482175 C470.94020773 219.48221344 470.94020773 219.48221344 470.93968409 220.54056253 C470.93899078 221.93913403 470.93829372 223.33770553 470.93759292 224.73627702 C470.92687977 246.49552362 470.94273732 268.2546081 470.97966003 290.01382446 C471.02111455 314.47224448 471.04248049 338.93054719 471.03450906 363.38900679 C471.03068407 376.33486909 471.03566934 389.28058371 471.06393814 402.22641945 C471.08776104 413.24773067 471.09058104 424.26880329 471.06635781 435.29011778 C471.05457674 440.91193681 471.05239039 446.53331939 471.07636261 452.15510941 C471.09806875 457.30538477 471.09188891 462.45485899 471.06383924 467.60509678 C471.05854201 469.46438254 471.06328918 471.32373097 471.07931097 473.18295524 C471.17270791 484.83323723 470.5217721 494.59908646 462.31217349 503.74376136 C460.36921863 505.6442246 458.62335895 507.0846111 456.30729675 508.52139282 C455.796551 508.85243369 455.28580524 509.18347457 454.75958234 509.52454698 C446.66763138 513.94875777 437.55719627 513.08255777 428.61459351 513.04278564 C426.69321531 513.04883 424.77184193 513.05660963 422.85047704 513.06597078 C417.58076193 513.08653164 412.31131895 513.08216705 407.04158151 513.07360959 C401.35431063 513.06867525 395.66710528 513.08670326 389.9798584 513.10168457 C378.84167133 513.12718342 367.70358067 513.13076534 356.56536933 513.12608404 C347.51151818 513.12251785 338.4576963 513.12601664 329.40384865 513.13453293 C327.47089727 513.1363185 327.47089727 513.1363185 325.49889636 513.13814013 C322.88101694 513.14056364 320.26313752 513.14299191 317.64525811 513.14542489 C300.0679336 513.16099911 282.49062468 513.16883776 264.91329479 513.1607914 C264.22617868 513.16047865 263.53906256 513.16016589 262.83112474 513.15984366 C259.34870574 513.15823215 255.86628677 513.1565406 252.38386782 513.15481706 C251.69227336 513.15447488 251.00067891 513.15413271 250.28812704 513.15378016 C248.88955554 513.15308685 247.49098405 513.15238979 246.09241255 513.15168899 C224.33316595 513.14097584 202.57408147 513.15683339 180.81486511 513.1937561 C156.3564451 513.23521062 131.89814239 513.25657656 107.43968278 513.24860513 C94.49382048 513.24478014 81.54810587 513.24976541 68.60227013 513.27803421 C57.58095891 513.30185711 46.55988628 513.30467711 35.5385718 513.28045388 C29.91675276 513.26867281 24.29537018 513.26648646 18.67358017 513.29045868 C13.5233048 513.31216482 8.37383059 513.30598498 3.2235928 513.27793531 C1.36430703 513.27263808 -0.49504139 513.27738525 -2.35426567 513.29340704 C-14.00454765 513.38680398 -23.77039688 512.73586817 -32.91507179 504.52626956 C-34.81553502 502.5833147 -36.25592153 500.83745502 -37.69270325 498.52139282 C-38.02374412 498.01064707 -38.35478499 497.49990131 -38.69585741 496.97367841 C-43.12006819 488.88172745 -42.2538682 479.77129234 -42.21409607 470.82868958 C-42.22014042 468.90731138 -42.22792006 466.985938 -42.2372812 465.06457311 C-42.25784206 459.794858 -42.25347747 454.52541502 -42.24492002 449.25567758 C-42.23998567 443.5684067 -42.25801368 437.88120135 -42.272995 432.19395447 C-42.29849385 421.0557674 -42.30207576 409.91767674 -42.29739447 398.7794654 C-42.29382828 389.72561425 -42.29732706 380.67179237 -42.30584335 371.61794472 C-42.30703373 370.32931046 -42.30822411 369.04067621 -42.30945056 367.71299243 C-42.31187407 365.09511301 -42.31430233 362.47723359 -42.31673531 359.85935418 C-42.33230954 342.28202967 -42.34014818 324.70472075 -42.33210182 307.12739086 C-42.33178907 306.44027475 -42.33147632 305.75315863 -42.33115409 305.04522081 C-42.32954257 301.56280181 -42.32785103 298.08038284 -42.32612748 294.59796389 C-42.32578531 293.90636943 -42.32544313 293.21477498 -42.32509059 292.50222311 C-42.32439728 291.10365161 -42.32370022 289.70508012 -42.32299942 288.30650862 C-42.31228626 266.54726202 -42.32814382 244.78817754 -42.36506653 223.02896118 C-42.40652105 198.57054117 -42.42788699 174.11223846 -42.41991556 149.65377885 C-42.41609057 136.70791655 -42.42107583 123.76220194 -42.44934464 110.8163662 C-42.47316753 99.79505498 -42.47598754 88.77398235 -42.4517643 77.75266787 C-42.43998323 72.13084883 -42.43779688 66.50946625 -42.4617691 60.88767624 C-42.48347524 55.73740087 -42.4772954 50.58792665 -42.44924574 45.43768886 C-42.4439485 43.5784031 -42.44869568 41.71905468 -42.46471746 39.8598304 C-42.55811441 28.20954842 -41.90717859 18.44369919 -33.69757998 9.29902428 C-31.75462513 7.39856104 -30.00876544 5.95817454 -27.69270325 4.52139282 C-27.18195749 4.19035195 -26.67121174 3.85931108 -26.14498883 3.51823866 C-18.05303787 -0.90597212 -8.94260276 -0.03977213 0 0 Z M-22.63020325 21.20889282 C-27.39031596 28.85392233 -26.97139641 36.90350653 -26.91975403 45.63858032 C-26.9199951 46.9578653 -26.92023617 48.27715027 -26.92048454 49.63641357 C-26.92093359 53.18510463 -26.90939426 56.73365911 -26.89526367 60.28231812 C-26.88382134 63.61981824 -26.88333459 66.95731293 -26.88191223 70.29483032 C-26.87144343 80.03703571 -26.84352093 89.77921602 -26.81770325 99.52139282 C-26.77645325 121.30139282 -26.73520325 143.08139282 -26.69270325 165.52139282 C22.80729675 165.52139282 72.30729675 165.52139282 123.30729675 165.52139282 C123.30729675 116.02139282 123.30729675 66.52139282 123.30729675 15.52139282 C90.42073425 15.42858032 90.42073425 15.42858032 56.86979675 15.33389282 C46.49908752 15.2929248 46.49908752 15.2929248 35.91886902 15.25112915 C29.70261607 15.2410937 29.70261607 15.2410937 23.48635864 15.23506165 C20.72492151 15.23046515 17.96390088 15.22106689 15.20254517 15.20466614 C11.67238504 15.18397924 8.14247581 15.17793943 4.6122607 15.18217599 C2.71607818 15.18087581 0.81992293 15.16484214 -1.07618618 15.14810658 C-9.21111651 15.17765959 -16.42827258 15.53478604 -22.63020325 21.20889282 Z M139.30729675 15.52139282 C139.30729675 65.02139282 139.30729675 114.52139282 139.30729675 165.52139282 C188.80729675 165.52139282 238.30729675 165.52139282 289.30729675 165.52139282 C289.51742978 134.39197039 289.51742978 134.39197039 289.69523621 103.26235962 C289.74516296 97.24563599 289.74516296 97.24563599 289.77230835 94.43016052 C289.78847243 92.46116296 289.79875101 90.4921118 289.80441284 88.52305603 C289.81412 85.54263597 289.84242073 82.56291893 289.87492371 79.58267212 C289.87349774 78.70347201 289.87207178 77.82427191 289.87060261 76.91842937 C289.96350758 70.97291494 289.96350758 70.97291494 291.61737347 68.80077839 C294.46110923 66.64787919 296.88203711 67.1007469 300.30729675 67.52139282 C302.49583435 68.98104858 302.49583435 68.98104858 304.30729675 71.52139282 C304.90769216 74.54581477 304.87103312 77.52884464 304.85319519 80.60440063 C304.86358952 81.53662823 304.87398384 82.46885582 304.88469315 83.42933273 C304.91381828 86.44457917 304.91576126 89.4591446 304.91667175 92.47451782 C304.93066623 94.33699961 304.94644279 96.19946889 304.96403503 98.06192017 C305.01672989 104.96494659 305.0349179 111.86820155 305.05729675 118.77139282 C305.13979675 134.19889282 305.22229675 149.62639282 305.30729675 165.52139282 C354.80729675 165.52139282 404.30729675 165.52139282 455.30729675 165.52139282 C455.34854675 143.74139282 455.38979675 121.96139282 455.43229675 99.52139282 C455.45050476 92.6506897 455.46871277 85.77998657 455.48747253 78.70108032 C455.49416244 72.52871804 455.49416244 72.52871804 455.4981842 66.35635376 C455.50125036 63.61246467 455.50752199 60.86876125 455.51844788 58.12490845 C455.53480035 53.96276428 455.53510808 49.80075653 455.53434753 45.63858032 C455.54154375 44.42137299 455.54873997 43.20416565 455.55615425 41.95007324 C455.53755404 34.33606337 455.36794641 27.83092106 451.24479675 21.20889282 C444.1045213 14.67630038 435.19869003 15.0994008 425.98478699 15.18081665 C424.67649429 15.18037857 423.3682016 15.17994049 422.02026367 15.17948914 C418.45880057 15.17863381 414.89764501 15.19618366 411.33625293 15.21721101 C407.60469829 15.23605575 403.87313541 15.23773436 400.14154053 15.24128723 C393.0869121 15.25058492 386.03242434 15.2751676 378.97785765 15.3053357 C370.94154605 15.3389509 362.90522747 15.35538356 354.86886299 15.37042201 C338.34825877 15.40171941 321.82779576 15.45443522 305.30729675 15.52139282 C305.29271423 16.34864868 305.27813171 17.17590454 305.2631073 18.02822876 C305.18863815 21.77642163 305.09197215 25.52372279 304.99479675 29.27139282 C304.96095886 31.22432251 304.96095886 31.22432251 304.92643738 33.21670532 C304.89098816 34.46709595 304.85553894 35.71748657 304.8190155 37.00576782 C304.79283142 38.15786743 304.76664734 39.30996704 304.7396698 40.49697876 C304.26958155 43.78520759 303.64088197 45.19367176 301.30729675 47.52139282 C298.10364357 48.47567249 296.16922799 48.82423353 292.99479675 47.70889282 C291.30729675 46.52139282 291.30729675 46.52139282 290.30729675 44.52139282 C289.97729675 34.95139282 289.64729675 25.38139282 289.30729675 15.52139282 C239.80729675 15.52139282 190.30729675 15.52139282 139.30729675 15.52139282 Z M-26.69270325 181.52139282 C-26.69270325 231.02139282 -26.69270325 280.52139282 -26.69270325 331.52139282 C22.80729675 331.52139282 72.30729675 331.52139282 123.30729675 331.52139282 C123.30729675 282.02139282 123.30729675 232.52139282 123.30729675 181.52139282 C73.80729675 181.52139282 24.30729675 181.52139282 -26.69270325 181.52139282 Z M139.30729675 181.52139282 C139.30729675 231.02139282 139.30729675 280.52139282 139.30729675 331.52139282 C188.80729675 331.52139282 238.30729675 331.52139282 289.30729675 331.52139282 C289.30729675 282.02139282 289.30729675 232.52139282 289.30729675 181.52139282 C239.80729675 181.52139282 190.30729675 181.52139282 139.30729675 181.52139282 Z M305.30729675 181.52139282 C305.30729675 231.02139282 305.30729675 280.52139282 305.30729675 331.52139282 C354.80729675 331.52139282 404.30729675 331.52139282 455.30729675 331.52139282 C455.30729675 282.02139282 455.30729675 232.52139282 455.30729675 181.52139282 C405.80729675 181.52139282 356.30729675 181.52139282 305.30729675 181.52139282 Z M-26.69270325 347.52139282 C-26.73395325 369.30139282 -26.77520325 391.08139282 -26.81770325 413.52139282 C-26.83591125 420.39209595 -26.85411926 427.26279907 -26.87287903 434.34170532 C-26.87956894 440.5140676 -26.87956894 440.5140676 -26.8835907 446.68643188 C-26.88665685 449.43032097 -26.89292848 452.1740244 -26.90385437 454.9178772 C-26.92020684 459.08002136 -26.92051457 463.24202911 -26.91975403 467.40420532 C-26.92695024 468.62141266 -26.93414646 469.83862 -26.94156075 471.0927124 C-26.94230091 483.35703563 -26.94230091 483.35703563 -20.69270325 493.52139282 C-15.67780815 497.12183033 -11.064411 497.64732694 -5.00427246 497.64164734 C-3.8699025 497.643022 -2.73553253 497.64439667 -1.56678772 497.64581299 C-0.33176514 497.64221771 0.90325745 497.63862244 2.17570496 497.63491821 C3.48341354 497.63506424 4.79112213 497.63521027 6.13845825 497.63536072 C9.71657425 497.63564725 13.29465663 497.62977377 16.87276483 497.62278676 C20.61503443 497.61652928 24.35730483 497.61594753 28.09957886 497.61476135 C35.18261322 497.6116551 42.26563213 497.60345122 49.34865969 497.59341186 C57.41391631 497.58222881 65.47917366 497.57673475 73.5444361 497.57171643 C90.13206536 497.56126803 106.71967908 497.54368225 123.30729675 497.52139282 C123.32917053 496.28050903 123.32917053 496.28050903 123.35148621 495.01455688 C123.42595536 491.26636401 123.52262136 487.51906285 123.61979675 483.77139282 C123.65363464 481.81846313 123.65363464 481.81846313 123.68815613 479.82608032 C123.72360535 478.5756897 123.75905457 477.32529907 123.795578 476.03701782 C123.82176208 474.88491821 123.84794617 473.7328186 123.87492371 472.54580688 C124.34501196 469.25757806 124.97371154 467.84911389 127.30729675 465.52139282 C130.51094994 464.56711315 132.44536551 464.21855212 135.61979675 465.33389282 C137.30729675 466.52139282 137.30729675 466.52139282 138.30729675 468.52139282 C138.63729675 478.09139282 138.96729675 487.66139282 139.30729675 497.52139282 C188.80729675 497.52139282 238.30729675 497.52139282 289.30729675 497.52139282 C289.30729675 448.02139282 289.30729675 398.52139282 289.30729675 347.52139282 C239.80729675 347.52139282 190.30729675 347.52139282 139.30729675 347.52139282 C139.09716372 378.65081525 139.09716372 378.65081525 138.9193573 409.78042603 C138.86943054 415.79714966 138.86943054 415.79714966 138.84228516 418.61262512 C138.82612107 420.58162269 138.8158425 422.55067384 138.81018066 424.51972961 C138.80047351 427.50014967 138.77217278 430.47986671 138.7396698 433.46011353 C138.74109576 434.33931363 138.74252172 435.21851374 138.7439909 436.12435627 C138.65108593 442.0698707 138.65108593 442.0698707 136.99722004 444.24200726 C134.15348428 446.39490645 131.73255639 445.94203874 128.30729675 445.52139282 C126.11875916 444.06173706 126.11875916 444.06173706 124.30729675 441.52139282 C123.70690135 438.49697087 123.74356039 435.51394101 123.76139832 432.43838501 C123.75100399 431.50615742 123.74060966 430.57392982 123.72990036 429.61345291 C123.70077523 426.59820647 123.69883225 423.58364104 123.69792175 420.56826782 C123.68392728 418.70578604 123.66815072 416.84331676 123.65055847 414.98086548 C123.59786361 408.07783905 123.57967561 401.1745841 123.55729675 394.27139282 C123.47479675 378.84389282 123.39229675 363.41639282 123.30729675 347.52139282 C73.80729675 347.52139282 24.30729675 347.52139282 -26.69270325 347.52139282 Z M305.30729675 347.52139282 C305.30729675 397.02139282 305.30729675 446.52139282 305.30729675 497.52139282 C327.27292175 497.56264282 349.23854675 497.60389282 371.86979675 497.64639282 C382.26781799 497.67370483 382.26781799 497.67370483 392.87590027 497.7015686 C399.0975103 497.70825807 399.0975103 497.70825807 405.31912231 497.71228027 C408.08722108 497.71534859 410.85513652 497.72162678 413.62319946 497.73254395 C417.1583211 497.74630085 420.69333144 497.75036796 424.22847736 497.74753737 C426.13221216 497.74840722 428.03593476 497.75911413 429.93963718 497.77025032 C438.27312128 497.75001843 445.02496146 497.6292188 451.30729675 491.52139282 C455.11739289 486.35054806 455.43347797 481.02112211 455.42755127 474.75067139 C455.42892877 473.6256679 455.43030626 472.50066441 455.4317255 471.3415699 C455.42812739 470.11716635 455.42452929 468.89276279 455.42082214 467.6312561 C455.42094268 466.3122122 455.42106321 464.9931683 455.4211874 463.63415337 C455.42141248 460.07709762 455.41563087 456.52007574 455.40857697 452.96302795 C455.40286774 449.62107437 455.40261307 446.27912219 455.40190125 442.93716431 C455.39666099 433.17356935 455.38269977 423.40998066 455.36979675 413.64639282 C455.34917175 391.82514282 455.32854675 370.00389282 455.30729675 347.52139282 C405.80729675 347.52139282 356.30729675 347.52139282 305.30729675 347.52139282 Z " transform="translate(41.69270324707031,-0.521392822265625)"/>
<path d="M0 0 C5.02001393 3.56561737 8.62962102 8.43006692 10.08984375 14.484375 C11.0421715 22.69529837 9.74182922 29.11519004 6.08984375 36.484375 C6.56035156 36.9690625 7.03085937 37.45375 7.515625 37.953125 C15.08740038 46.10493286 16.81915058 52.45289442 16.5625 63.65625 C15.46358222 72.55657586 11.12121287 79.64953682 4.10546875 85.15234375 C-2.95843011 89.82054048 -10.55144954 91.24549301 -18.91015625 90.484375 C-28.55498702 88.32342445 -34.98201162 83.24349089 -40.91015625 75.484375 C-45.2631765 68.08424057 -46.23257611 59.9931983 -44.2265625 51.63671875 C-42.15941975 45.40098106 -39.49279434 41.17116396 -34.91015625 36.484375 C-35.19890625 35.80375 -35.48765625 35.123125 -35.78515625 34.421875 C-38.96341705 26.12308292 -40.10039147 19.21557986 -37.01171875 10.7578125 C-34.12025169 4.79031665 -29.39909667 -0.23770113 -23.26953125 -2.88671875 C-15.05763299 -5.0756519 -7.33624073 -4.23290389 0 0 Z M-20.28515625 14.109375 C-22.29521668 17.04715562 -22.83749604 18.9240246 -22.91015625 22.484375 C-22.06269991 25.34139207 -22.06269991 25.34139207 -19.91015625 27.484375 C-16.58761514 29.14796581 -16.58761514 29.14796581 -12.91015625 29.484375 C-9.30071158 27.96038725 -8.0993236 26.76812602 -5.91015625 23.484375 C-5.29594916 19.44815695 -5.56660502 17.96326459 -7.97265625 14.609375 C-10.80032465 12.22629642 -10.80032465 12.22629642 -14.47265625 11.921875 C-17.90435945 12.23400845 -17.90435945 12.23400845 -20.28515625 14.109375 Z M-26.19921875 50.9921875 C-28.95767543 55.02666495 -29.45544231 58.47552455 -28.65234375 63.26953125 C-27.04200848 68.07511072 -23.77873373 71.27232474 -19.59765625 73.984375 C-14.93955208 74.85099903 -10.27361172 74.826337 -6.06640625 72.4375 C-2.51626307 69.61826865 -0.27706251 66.83086852 0.42578125 62.3359375 C0.52166426 56.87060605 -0.15424272 53.73448767 -3.91015625 49.484375 C-8.06397374 45.81355954 -11.32946443 44.82386837 -16.734375 45.10546875 C-20.91107735 45.83282984 -23.48639486 47.81900561 -26.19921875 50.9921875 Z " transform="translate(269.91015625,210.515625)"/>
<path d="M0 0 C7.04932681 4.94766416 12.95931528 11.84193762 19 17.9375 C19.97502386 18.9175531 20.9502828 19.8973724 21.92578125 20.87695312 C24.28616618 23.24902313 26.64416905 25.6234086 29 28 C33.17631674 26.38533208 35.83105745 23.30229884 38.83203125 20.1171875 C39.97124938 18.93807136 41.11124773 17.75970863 42.25195312 16.58203125 C44.03742059 14.72848746 45.81691086 12.87032582 47.58325195 10.99853516 C49.29611736 9.18867014 51.0305085 7.40188518 52.76953125 5.6171875 C53.54959282 4.77352127 53.54959282 4.77352127 54.34541321 3.91281128 C57.17651021 1.04272263 58.68159078 0.0355335 62.7409668 -0.41748047 C66.28060916 0.03594589 67.70917033 0.26862617 70 3 C71 6.3125 71 6.3125 71 10 C68.38391724 14.55061935 65.08579597 18.18578917 61.359375 21.8359375 C60.83232971 22.36015289 60.30528442 22.88436829 59.76226807 23.42446899 C58.09619309 25.07944834 56.42326417 26.72729289 54.75 28.375 C53.61151665 29.50343981 52.47349122 30.63234181 51.3359375 31.76171875 C48.56255488 34.51318208 45.78300766 37.25827383 43 40 C44.59956174 44.06969475 47.51909442 46.67339391 50.62890625 49.61328125 C51.75774196 50.70708352 52.88597891 51.80150399 54.01367188 52.89648438 C55.78715401 54.60809229 57.56473511 56.31461932 59.35327148 58.01049805 C61.08389796 59.65613307 62.79477715 61.3203681 64.50390625 62.98828125 C65.03931534 63.48644852 65.57472443 63.98461578 66.12635803 64.49787903 C69.8046684 68.12474711 70.88406518 70.85591491 71 76 C69.65437601 78.94755732 68.91445456 80.54277272 66 82 C62.72315289 82.45608311 60.17511683 82.75189975 57.29519653 80.90917969 C55.49735588 79.30701585 53.8417302 77.6287783 52.19140625 75.875 C51.57982162 75.25351074 50.968237 74.63202148 50.33811951 73.99169922 C48.39581807 72.01033194 46.47931226 70.00600545 44.5625 68 C43.24707411 66.64945077 41.93003314 65.30047261 40.61132812 63.953125 C37.38855359 60.65332863 34.18869362 57.33272773 31 54 C26.91709903 55.61551447 24.21566164 58.54639696 21.2109375 61.62890625 C20.66643951 62.1786058 20.12194153 62.72830536 19.5609436 63.29466248 C17.82746221 65.04591176 16.10083449 66.80371688 14.375 68.5625 C12.64115848 70.32395811 10.90587817 72.08393623 9.16763306 73.84104919 C8.08752633 74.93341505 7.01010397 76.02844296 5.93563843 77.12635803 C1.23969929 81.88521303 1.23969929 81.88521303 -3.375 82.3125 C-7 82 -7 82 -9.4375 80.5 C-11.59976135 77.04038184 -11.79622862 73.92159513 -11 70 C-9.34381809 67.28433518 -7.1916264 65.25419763 -4.875 63.09375 C-4.25351074 62.48358032 -3.63202148 61.87341064 -2.99169922 61.24475098 C-1.01251697 59.31016617 0.99267398 57.40532384 3 55.5 C4.35077648 54.18937124 5.69975719 52.876889 7.046875 51.5625 C10.34417189 48.35316138 13.66507729 45.17020388 17 42 C15.38848278 37.82623262 12.30757926 35.19115039 9.1171875 32.203125 C7.9379168 31.06862783 6.75955897 29.93318115 5.58203125 28.796875 C3.72974218 27.01875609 1.87240374 25.24756791 -0.00146484 23.4921875 C-1.81382245 21.78913458 -3.59944327 20.06144454 -5.3828125 18.328125 C-5.94525665 17.81324524 -6.50770081 17.29836548 -7.08718872 16.7678833 C-10.00708205 13.88808724 -11.35636406 11.8076532 -11.44873047 7.76074219 C-11 4 -11 4 -9.4375 1.5 C-5.89383548 -0.68071663 -4.10900306 -0.75331723 0 0 Z " transform="translate(392,215)"/>
<path d="M0 0 C6.4220225 5.99778867 9.09018162 12.12481765 9.4375 20.875 C9.25399149 26.97665783 7.7797447 31.60646551 5 37 C4.53722656 37.89976562 4.07445312 38.79953125 3.59765625 39.7265625 C-1.01723863 48.09881678 -6.76408934 55.55184234 -12.57519531 63.11572266 C-14.7808283 66.03263071 -16.89028128 69.01316379 -19 72 C-17.80455566 72.01401855 -17.80455566 72.01401855 -16.58496094 72.02832031 C-12.97267825 72.08201498 -9.36169179 72.16566608 -5.75 72.25 C-4.49574219 72.26417969 -3.24148437 72.27835937 -1.94921875 72.29296875 C-0.74394531 72.32519531 0.46132812 72.35742188 1.703125 72.390625 C2.81333008 72.41157227 3.92353516 72.43251953 5.06738281 72.45410156 C8.61996491 73.11540472 9.794682 74.19311378 12 77 C13.08232681 80.01505326 13.10769687 81.57900315 12.3125 84.6875 C10.76499572 87.41405516 9.86559982 87.86183896 7 89 C4.84425354 89.26742554 4.84425354 89.26742554 2.49438477 89.29052734 C1.60989151 89.30328705 0.72539825 89.31604675 -0.18589783 89.32919312 C-1.13388748 89.33141876 -2.08187714 89.33364441 -3.05859375 89.3359375 C-4.53054955 89.3459227 -4.53054955 89.3459227 -6.03224182 89.35610962 C-8.10586677 89.36622642 -10.17952422 89.37092694 -12.25317383 89.37060547 C-15.4225838 89.37497941 -18.59060189 89.41131186 -21.75976562 89.44921875 C-23.77603691 89.45508696 -25.7923148 89.45905632 -27.80859375 89.4609375 C-28.75455917 89.47530853 -29.7005246 89.48967957 -30.67515564 89.50448608 C-34.93824912 89.47493383 -37.35710534 89.38666594 -41.07446289 87.15087891 C-43.57921645 84.352999 -44 82.74678172 -44 79 C-41.66910229 73.3041336 -37.90973904 68.7113144 -34.1875 63.875 C-28.79113706 56.76026061 -23.47328217 49.60033801 -18.3125 42.3125 C-17.73717529 41.51247559 -17.16185059 40.71245117 -16.5690918 39.88818359 C-12.141217 33.5900892 -7.6107158 27.14350385 -7.9375 19.1875 C-8.49820321 15.9746706 -8.95810625 15.04787857 -11.1875 12.5 C-14.34418084 10.81643688 -16.41534813 10.07315616 -20 10 C-26.23632489 12.12035046 -28.52798713 16.05597427 -31.375 21.75 C-33.58334605 24.80770992 -35.32756361 25.33896145 -39 26 C-42.8665824 25.0333544 -43.74490465 24.38264302 -46 21 C-46.78593466 13.27164249 -44.38999561 8.6703504 -40.25 2.3125 C-29.41771597 -8.82068081 -12.07286423 -10.20926774 0 0 Z " transform="translate(108,379)"/>
<path d="M0 0 C0.96472733 -0.01283524 1.92945465 -0.02567047 2.92341614 -0.03889465 C4.49212715 -0.04997505 4.49212715 -0.04997505 6.0925293 -0.0612793 C7.16544724 -0.06935104 8.23836517 -0.07742279 9.34379578 -0.08573914 C11.61768982 -0.09958665 13.89160471 -0.11030581 16.16552734 -0.11816406 C19.64224666 -0.13537674 23.11801524 -0.17925793 26.59448242 -0.22338867 C28.80215771 -0.23351539 31.00984109 -0.24203156 33.2175293 -0.2487793 C34.25726395 -0.26628738 35.2969986 -0.28379547 36.36824036 -0.30183411 C40.66000572 -0.28894552 43.64201049 -0.16320288 47.55029297 1.70361328 C49.62441733 4.54742893 49.96093806 6.54360519 49.72711182 10.04443359 C49.09033075 13.68645853 47.70857105 16.822163 46.12768555 20.14575195 C45.78808807 20.89165588 45.4484906 21.63755981 45.09860229 22.40606689 C43.98897394 24.83616147 42.85916952 27.25628601 41.72924805 29.67700195 C40.95379595 31.36665748 40.18005182 33.05709783 39.40795898 34.74829102 C38.2256193 37.337906 37.04236186 39.92704146 35.8536377 42.51373291 C31.68555902 51.59032611 27.70583619 60.74632607 23.74554443 69.91503906 C14.43258249 91.45811232 14.43258249 91.45811232 10.35424805 94.17700195 C6.48086051 94.59955332 4.23826196 94.74367754 0.91674805 92.61450195 C-1.25896951 89.22038256 -0.9749103 87.18976657 -0.64575195 83.17700195 C0.29378595 80.13718381 1.5784825 77.2922458 2.9050293 74.40356445 C3.27529739 73.56992874 3.64556549 72.73629303 4.02705383 71.87739563 C5.22832677 69.18006682 6.44733439 66.49117147 7.66674805 63.80200195 C8.49337019 61.95434105 9.31872417 60.10611228 10.14282227 58.25732422 C11.77800527 54.59285298 13.41946757 50.93130926 15.06665039 47.2722168 C18.08020528 40.5715882 21.03149335 33.84429108 23.97924805 27.11450195 C24.84598068 25.14424971 25.71311165 23.1741726 26.58081055 21.2043457 C26.92708496 20.41793701 27.27335937 19.63152832 27.63012695 18.82128906 C27.86908691 18.27867432 28.10804688 17.73605957 28.35424805 17.17700195 C27.37552734 17.16241943 26.39680664 17.14783691 25.38842773 17.1328125 C21.75020178 17.07475089 18.11258969 16.99751935 14.47485352 16.91455078 C12.90171283 16.88133823 11.32845404 16.85329479 9.75512695 16.83056641 C7.49078133 16.79695167 5.2275144 16.74463571 2.96362305 16.6887207 C1.91183868 16.67913582 1.91183868 16.67913582 0.83880615 16.6693573 C-3.22284429 16.54761432 -5.80289399 16.19216763 -8.64575195 13.17700195 C-9.74948574 9.20356034 -10.06118778 7.08700424 -8.33325195 3.30200195 C-5.74717596 0.04546182 -3.98674851 0.04612026 0 0 Z " transform="translate(235.645751953125,42.822998046875)"/>
</svg>
